<svg id="Capa_1" enable-background="new 0 0 512 512" height="512" viewBox="0 0 512 512" width="512" xmlns="http://www.w3.org/2000/svg"><path d="m469.21 474.21c-.12 16.49-13.51 29.79-30 29.79h-193.21c-2.12 0-4.22-.45-6.16-1.32l-97.06-43.68h-26.78v-165h89c2.99 0 5.92.9 8.4 2.57l90.85 59.2c13.685 9.259 19.135 28.334 8.39 44.77-9.26 14.23-28.02 18.75-42.75 10.31l-46.43-26.86c-7.19-4.12-16.35-1.64-20.47 5.55s-1.64 16.35 5.55 20.47l48.71 27.93c8.379 4.803 18.297 6.695 25.06 6.06h156.9c16.284 0 30 13.077 30 30.21z" fill="#fecec0"/><path d="m286 415.09v-71.21l18.25 11.89c13.68 9.26 19.14 28.33 8.39 44.77-6.07 9.33-16.22 14.48-26.64 14.55z" fill="#fecec0"/><path d="m469.21 474.21c-.12 16.49-13.51 29.79-30 29.79h-153.21v-60h153.21c16.28 0 30 13.08 30 30.21z" fill="#feb99e"/><path d="m319 101.04v192.65c-3.45.71-7.09.19-10.25-1.56-1.13-.62-27.88-15.5-54.97-38.52-38.34-32.6-57.78-64.6-57.78-95.12 0-64.37 75.77-98.81 120-54.61.98-.98 1.99-1.93 3-2.84z" fill="#c80b97"/><path d="m436 158.49c0 30.52-19.44 62.52-57.78 95.12-27.09 23.02-53.84 37.9-54.97 38.52-2.25 1.25-4.75 1.87-7.25 1.87v-190.12c44.16-44.14 120-9.87 120 54.61z" fill="#960095"/><path d="m316 8c-8.284 0-15 6.716-15 15v16c0 8.284 6.716 15 15 15s15-6.716 15-15v-16c0-8.284-6.716-15-15-15z" fill="#ffda2d"/><path d="m331 23v16c0 8.28-6.72 15-15 15v-46c8.28 0 15 6.72 15 15z" fill="#fcbe29"/><path d="m188.62 45.407c-5.857-5.858-15.355-5.858-21.213 0s-5.858 15.355 0 21.213l11.313 11.313c5.857 5.858 15.355 5.859 21.213 0 5.858-5.858 5.858-15.355 0-21.213z" fill="#ffda2d"/><path d="m151 159h-16c-8.284 0-15 6.716-15 15s6.716 15 15 15h16c8.284 0 15-6.716 15-15s-6.716-15-15-15z" fill="#ffda2d"/><path d="m464.593 45.407c-5.857-5.858-15.355-5.858-21.213 0l-11.313 11.313c-5.858 5.858-5.858 15.355 0 21.213 5.857 5.858 15.355 5.859 21.213 0l11.313-11.313c5.858-5.858 5.858-15.355 0-21.213z" fill="#fcbe29"/><path d="m497 159h-16c-8.284 0-15 6.716-15 15s6.716 15 15 15h16c8.284 0 15-6.716 15-15s-6.716-15-15-15z" fill="#fcbe29"/><path d="m106 264h-91c-8.284 0-15 6.716-15 15v195c0 8.284 6.716 15 15 15h91c8.284 0 15-6.716 15-15v-195c0-8.284-6.716-15-15-15z" fill="#7ce294"/></svg>